# xmcd
#
# Track frame offsets: 
#        150
#        13064
#        30069
#        45394
#        57972
#        74523
#        93241
#        112274
#        132981
#        159530
#        176795
#
# Disc length: 2648 seconds
#
# Revision: 0
# Processed by: cddbd v1.5.2PL0 Copyright (c) Steve Scherf et al.
# Submitted via: ExactAudioCopyFreeDBPlugin 1.0
#
DISCID=8f0a560b
DTITLE=The Veldman Brothers - Refuel
DYEAR=2017
DGENRE=Blues
TTITLE0=Brothers Groove
TTITLE1=The Only One
TTITLE2=Losin' It
TTITLE3=I Found
TTITLE4=Stay Close
TTITLE5=Journey
TTITLE6=What Is Wrong
TTITLE7=Suspicious
TTITLE8=No Love Song
TTITLE9=Carry On
TTITLE10=One Step Closer
EXTD=
EXTT0=
EXTT1=
EXTT2=
EXTT3=
EXTT4=
EXTT5=
EXTT6=
EXTT7=
EXTT8=
EXTT9=
EXTT10=
PLAYORDER=
